<svg xmlns="http://www.w3.org/2000/svg" xmlns:xlink="http://www.w3.org/1999/xlink" width="500" zoomAndPan="magnify" viewBox="0 0 375 374.999991" height="500" preserveAspectRatio="xMidYMid meet" version="1.0"><defs><clipPath id="053d958831"><path d="M 6 3.535156 L 370 3.535156 L 370 370 L 6 370 Z M 6 3.535156 " clip-rule="nonzero"/></clipPath><clipPath id="894ff5b8ad"><path d="M 64 101 L 274 101 L 274 311 L 64 311 Z M 64 101 " clip-rule="nonzero"/></clipPath><clipPath id="e929d5aa06"><path d="M 213.207031 48 L 327.230469 162.019531 L 161.765625 327.484375 L 47.746094 213.460938 Z M 213.207031 48 " clip-rule="nonzero"/></clipPath><clipPath id="95d429b85e"><path d="M 213.207031 48 L 327.230469 162.019531 L 161.765625 327.484375 L 47.746094 213.460938 Z M 213.207031 48 " clip-rule="nonzero"/></clipPath></defs><g clip-path="url(#053d958831)"><path fill="#ff6600" d="M 257.074219 26.214844 C 235.65625 17.792969 212.683594 13.730469 189.859375 14.171875 L 189.859375 3.535156 C 214.085938 4.054688 238.09375 9.226562 260.105469 18.828125 C 282.117188 28.429688 302.132812 42.390625 318.753906 59.527344 C 335.300781 76.738281 348.371094 97.125 357.015625 119.210938 C 365.65625 141.296875 369.867188 164.933594 369.5 188.496094 C 368.980469 165.007812 363.957031 141.664062 354.578125 120.242188 C 345.269531 98.824219 331.679688 79.394531 314.984375 63.292969 C 298.292969 47.265625 278.496094 34.558594 257.074219 26.214844 Z M 18.859375 142.699219 C 24.476562 120.171875 34.519531 98.75 48.332031 79.988281 C 62.144531 61.152344 79.875 45.125 99.964844 32.933594 C 79.429688 44.3125 61.039062 59.820312 46.265625 78.363281 C 31.492188 96.902344 20.339844 118.398438 13.765625 141.371094 C 7.191406 164.339844 5.121094 188.644531 7.78125 212.5 C 10.441406 236.359375 17.972656 259.773438 29.644531 280.972656 L 38.804688 275.65625 C 27.058594 256.082031 19.082031 234.144531 15.609375 211.394531 C 12.285156 188.644531 13.320312 165.152344 18.859375 142.699219 Z M 296.816406 327.804688 C 278.867188 342.132812 257.960938 352.992188 235.730469 359.417969 C 213.421875 365.84375 189.859375 367.839844 166.664062 365.253906 C 143.472656 362.667969 120.722656 355.355469 100.113281 344.054688 C 120.277344 356.167969 142.878906 364.367188 166.296875 367.914062 C 189.710938 371.457031 213.9375 370.351562 237.058594 364.589844 C 260.25 358.828125 282.335938 348.488281 301.617188 334.15625 C 320.96875 319.902344 337.515625 301.65625 349.996094 280.972656 L 340.839844 275.65625 C 329.757812 295.597656 314.765625 313.476562 296.816406 327.804688 Z M 355.6875 188.496094 C 355.6875 279.941406 281.304688 354.320312 189.859375 354.320312 C 98.414062 354.320312 24.03125 279.941406 24.03125 188.496094 C 24.03125 97.050781 98.414062 22.59375 189.859375 22.59375 C 281.304688 22.59375 355.6875 97.050781 355.6875 188.496094 Z M 348.816406 188.496094 C 348.816406 100.816406 277.460938 29.539062 189.859375 29.539062 C 102.179688 29.539062 30.902344 100.890625 30.902344 188.496094 C 30.902344 276.097656 102.253906 347.453125 189.859375 347.453125 C 277.535156 347.453125 348.816406 276.171875 348.816406 188.496094 Z M 348.816406 188.496094 " fill-opacity="1" fill-rule="nonzero"/></g><g clip-path="url(#894ff5b8ad)"><g clip-path="url(#e929d5aa06)"><g clip-path="url(#95d429b85e)"><path fill="#ff6600" d="M 261.574219 166.78125 L 208.214844 113.421875 C 248.402344 91.933594 270.101562 104.894531 270.101562 104.894531 C 270.101562 104.894531 283.0625 126.59375 261.574219 166.78125 Z M 221.351562 218.640625 C 191.5625 248.433594 152.96875 258.589844 152.96875 258.589844 L 116.40625 222.027344 C 116.40625 222.027344 126.5625 183.433594 156.355469 153.640625 C 173.082031 136.914062 188.085938 125.335938 201.3125 117.351562 L 257.644531 173.683594 C 249.660156 186.910156 238.078125 201.914062 221.351562 218.640625 Z M 218.644531 188.851562 C 219.175781 188.316406 219.683594 187.761719 220.160156 187.179688 C 220.636719 186.597656 221.085938 185.992188 221.503906 185.367188 C 221.921875 184.742188 222.308594 184.097656 222.664062 183.433594 C 223.015625 182.769531 223.339844 182.089844 223.625 181.394531 C 223.914062 180.699219 224.167969 179.992188 224.386719 179.269531 C 224.605469 178.550781 224.789062 177.820312 224.933594 177.082031 C 225.082031 176.34375 225.191406 175.601562 225.265625 174.851562 C 225.339844 174.105469 225.375 173.351562 225.375 172.601562 C 225.375 171.847656 225.339844 171.097656 225.265625 170.347656 C 225.191406 169.597656 225.082031 168.855469 224.933594 168.117188 C 224.789062 167.378906 224.605469 166.648438 224.386719 165.929688 C 224.167969 165.210938 223.914062 164.5 223.625 163.804688 C 223.339844 163.109375 223.015625 162.429688 222.664062 161.765625 C 222.308594 161.105469 221.921875 160.457031 221.503906 159.832031 C 221.085938 159.207031 220.636719 158.601562 220.160156 158.023438 C 219.683594 157.441406 219.175781 156.882812 218.644531 156.351562 C 218.113281 155.820312 217.554688 155.3125 216.972656 154.835938 C 216.390625 154.359375 215.789062 153.910156 215.164062 153.492188 C 214.535156 153.074219 213.890625 152.6875 213.226562 152.332031 C 212.5625 151.976562 211.886719 151.65625 211.191406 151.367188 C 210.496094 151.082031 209.785156 150.828125 209.066406 150.609375 C 208.347656 150.390625 207.617188 150.207031 206.878906 150.0625 C 206.140625 149.914062 205.398438 149.804688 204.648438 149.730469 C 203.898438 149.65625 203.148438 149.621094 202.394531 149.621094 C 201.640625 149.621094 200.890625 149.65625 200.144531 149.730469 C 199.394531 149.804688 198.648438 149.914062 197.910156 150.0625 C 197.171875 150.207031 196.445312 150.390625 195.722656 150.609375 C 195.003906 150.828125 194.296875 151.082031 193.601562 151.367188 C 192.90625 151.65625 192.226562 151.976562 191.5625 152.332031 C 190.898438 152.6875 190.253906 153.074219 189.628906 153.492188 C 189.003906 153.910156 188.398438 154.359375 187.816406 154.835938 C 187.234375 155.3125 186.675781 155.820312 186.144531 156.351562 C 185.613281 156.882812 185.109375 157.441406 184.632812 158.023438 C 184.152344 158.601562 183.707031 159.207031 183.289062 159.832031 C 182.871094 160.457031 182.484375 161.105469 182.128906 161.765625 C 181.773438 162.429688 181.453125 163.109375 181.164062 163.804688 C 180.875 164.5 180.621094 165.210938 180.402344 165.929688 C 180.1875 166.648438 180.003906 167.378906 179.855469 168.117188 C 179.710938 168.855469 179.597656 169.597656 179.523438 170.347656 C 179.453125 171.097656 179.414062 171.847656 179.414062 172.601562 C 179.414062 173.351562 179.453125 174.105469 179.523438 174.851562 C 179.597656 175.601562 179.710938 176.34375 179.855469 177.082031 C 180.003906 177.820312 180.1875 178.550781 180.402344 179.269531 C 180.621094 179.992188 180.875 180.699219 181.164062 181.394531 C 181.453125 182.089844 181.773438 182.769531 182.128906 183.433594 C 182.484375 184.097656 182.871094 184.742188 183.289062 185.367188 C 183.707031 185.992188 184.152344 186.597656 184.632812 187.179688 C 185.109375 187.761719 185.613281 188.316406 186.144531 188.851562 C 186.675781 189.382812 187.234375 189.886719 187.816406 190.363281 C 188.398438 190.84375 189.003906 191.289062 189.628906 191.707031 C 190.253906 192.125 190.898438 192.511719 191.5625 192.867188 C 192.226562 193.222656 192.90625 193.542969 193.601562 193.832031 C 194.296875 194.121094 195.003906 194.371094 195.722656 194.589844 C 196.445312 194.808594 197.171875 194.992188 197.910156 195.140625 C 198.648438 195.285156 199.394531 195.398438 200.144531 195.46875 C 200.890625 195.542969 201.640625 195.582031 202.394531 195.582031 C 203.148438 195.582031 203.898438 195.542969 204.648438 195.46875 C 205.398438 195.398438 206.140625 195.285156 206.878906 195.140625 C 207.617188 194.992188 208.347656 194.808594 209.066406 194.589844 C 209.785156 194.371094 210.496094 194.121094 211.191406 193.832031 C 211.886719 193.542969 212.5625 193.222656 213.226562 192.867188 C 213.890625 192.511719 214.535156 192.125 215.164062 191.707031 C 215.789062 191.289062 216.390625 190.84375 216.972656 190.363281 C 217.554688 189.886719 218.113281 189.382812 218.644531 188.851562 Z M 115.730469 232.183594 C 115.371094 231.824219 114.957031 231.546875 114.488281 231.351562 C 114.019531 231.160156 113.53125 231.0625 113.019531 231.0625 C 112.511719 231.0625 112.023438 231.160156 111.554688 231.351562 C 111.085938 231.546875 110.671875 231.824219 110.3125 232.183594 L 104.898438 237.597656 C 104.539062 237.957031 104.261719 238.371094 104.066406 238.84375 C 103.871094 239.3125 103.773438 239.800781 103.773438 240.308594 C 103.773438 240.816406 103.871094 241.304688 104.066406 241.773438 C 104.261719 242.242188 104.539062 242.65625 104.898438 243.015625 C 105.253906 243.375 105.667969 243.652344 106.140625 243.847656 C 106.609375 244.039062 107.097656 244.136719 107.605469 244.136719 C 108.113281 244.136719 108.601562 244.039062 109.070312 243.847656 C 109.539062 243.652344 109.953125 243.375 110.3125 243.015625 L 115.730469 237.597656 C 116.089844 237.242188 116.367188 236.824219 116.558594 236.355469 C 116.753906 235.886719 116.851562 235.398438 116.851562 234.890625 C 116.851562 234.382812 116.753906 233.894531 116.558594 233.425781 C 116.367188 232.957031 116.089844 232.542969 115.730469 232.183594 Z M 142.8125 259.265625 C 142.453125 258.90625 142.039062 258.628906 141.570312 258.4375 C 141.101562 258.242188 140.613281 258.144531 140.105469 258.144531 C 139.597656 258.144531 139.109375 258.242188 138.636719 258.4375 C 138.167969 258.628906 137.753906 258.90625 137.394531 259.265625 L 131.980469 264.683594 C 131.621094 265.042969 131.34375 265.457031 131.148438 265.925781 C 130.953125 266.394531 130.859375 266.882812 130.859375 267.390625 C 130.859375 267.898438 130.953125 268.386719 131.148438 268.855469 C 131.34375 269.324219 131.621094 269.738281 131.980469 270.097656 C 132.339844 270.457031 132.753906 270.734375 133.222656 270.929688 C 133.691406 271.125 134.179688 271.222656 134.6875 271.222656 C 135.195312 271.222656 135.683594 271.125 136.152344 270.929688 C 136.621094 270.734375 137.035156 270.457031 137.394531 270.097656 L 142.8125 264.683594 C 143.171875 264.324219 143.449219 263.910156 143.644531 263.441406 C 143.835938 262.96875 143.933594 262.480469 143.933594 261.972656 C 143.933594 261.464844 143.835938 260.976562 143.644531 260.507812 C 143.449219 260.039062 143.171875 259.625 142.8125 259.265625 Z M 129.269531 245.722656 C 128.910156 245.367188 128.496094 245.089844 128.027344 244.894531 C 127.558594 244.699219 127.070312 244.601562 126.5625 244.601562 C 126.054688 244.601562 125.566406 244.699219 125.097656 244.894531 C 124.628906 245.089844 124.214844 245.367188 123.855469 245.722656 L 104.898438 264.683594 C 104.539062 265.042969 104.261719 265.457031 104.066406 265.925781 C 103.871094 266.394531 103.773438 266.882812 103.773438 267.390625 C 103.773438 267.898438 103.871094 268.386719 104.066406 268.855469 C 104.261719 269.324219 104.539062 269.738281 104.898438 270.097656 C 105.253906 270.457031 105.667969 270.734375 106.140625 270.929688 C 106.609375 271.125 107.097656 271.222656 107.605469 271.222656 C 108.113281 271.222656 108.601562 271.125 109.070312 270.929688 C 109.539062 270.734375 109.953125 270.457031 110.3125 270.097656 L 129.269531 251.140625 C 129.628906 250.78125 129.90625 250.367188 130.101562 249.898438 C 130.296875 249.429688 130.394531 248.941406 130.394531 248.433594 C 130.394531 247.925781 130.296875 247.4375 130.101562 246.96875 C 129.90625 246.496094 129.628906 246.082031 129.269531 245.722656 Z M 75.105469 186.140625 C 64.273438 196.976562 64.273438 207.808594 64.273438 207.808594 L 111.382812 212.519531 C 117.074219 196.425781 124.855469 181.417969 134.722656 167.492188 C 120.058594 168.398438 89.269531 171.976562 75.105469 186.140625 Z M 207.503906 240.269531 C 193.578125 250.140625 178.570312 257.921875 162.476562 263.613281 L 167.1875 310.722656 C 167.1875 310.722656 178.019531 310.722656 188.855469 299.890625 C 203.019531 285.722656 206.597656 254.9375 207.503906 240.269531 Z M 207.503906 240.269531 " fill-opacity="1" fill-rule="nonzero"/></g></g></g></svg>